<?xml version="1.0" encoding="utf-8"?>
<!-- Generator: Adobe Illustrator 18.1.0, SVG Export Plug-In . SVG Version: 6.00 Build 0)  -->
<svg version="1.1" id="Layer_1" xmlns="http://www.w3.org/2000/svg" xmlns:xlink="http://www.w3.org/1999/xlink" x="0px" y="0px"
	 viewBox="0 0 141.7 115.2" enable-background="new 0 0 141.7 115.2" xml:space="preserve">
<path d="M1317.8,5.7h-17.6h-4.7h0h-4.7h-17.6c-0.4,0-0.8,0.4-0.8,0.8v87.8v12.5c0,0.4,0.4,0.8,0.8,0.8h22.3h0h22.3
	c0.4,0,0.8-0.4,0.8-0.8V94.3V6.5C1318.6,6.1,1318.2,5.7,1317.8,5.7z M1302.1,60.7l-1.2-4.2V7.3h1.2V60.7z M1291.2,57.5h8.3l2.3,8.2
	h-13L1291.2,57.5z M1291.4,7.3h3.2h1.6h3.1v48.6h-7.9V7.3z M1289.8,56.6l-1.2,4.2V7.3h1.2V56.6z M1273.9,7.3h13.2v59.1h0
	c0,0.2,0,0.3,0.1,0.5c0.2,0.2,0.4,0.3,0.6,0.3h6.7v26.3h-20.7L1273.9,7.3L1273.9,7.3z M1273.9,95.1h20.7v10.9h-20.7V95.1z
	 M1317,106.1h-20.7V95.1h20.7V106.1z M1296.2,93.5V67.2h6.7c0.3,0,0.5-0.1,0.6-0.3c0.1-0.1,0.1-0.3,0.1-0.5h0V7.3h13.2v86.2H1296.2z
	"/>
<g>
	<path d="M78.6,39c-2.3-1-4.9-1.6-7.6-1.6c-2.5,0-4.8,0.5-7,1.3c-1.2,0.3-2.3,0.7-3.3,1.3L19.8,55v3l42.6,15.7
		c0.1,0.1,0.3,0.1,0.5,0.2c2.4,1.1,5.2,1.8,8,1.8c3.1,0,6.1-0.8,8.7-2.1l42.2-15.5v-3L81,40C80.3,39.6,79.4,39.3,78.6,39z
		 M54.5,67.3l-0.6-0.2L24.4,56.6l29.5-10.5l0.7-0.3c-2.1,3.1-3.2,6.8-3.2,10.8C51.4,60.7,52.5,64.3,54.5,67.3z M87.8,46.1l29.5,10.5
		L87.8,67.1l-0.6,0.2c2-2.9,3.1-6.6,3.1-10.7c0-3.9-1.1-7.6-3.2-10.8L87.8,46.1z M86.5,56.6c0,8.6-7,15.5-15.5,15.5
		c-8.6,0-15.5-7-15.5-15.5C55.4,48,62.4,41,71,41C79.5,41,86.5,48,86.5,56.6z"/>
	<path d="M87.8,86.2l-0.6,0.2c1.9-2.9,3-6.4,3-10.4h-3.8c-0.1,8.4-7,15.3-15.5,15.3c-8.5,0-15.4-6.8-15.5-15.3h-4
		c0,4,1.1,7.6,3,10.4l-0.6-0.2L25.1,76h-5.3v1.3l42.6,15.7c0.1,0.1,0.3,0.1,0.5,0.2c2.4,1.1,5.2,1.8,8,1.8c3.1,0,6.1-0.8,8.7-2.1
		l42.2-15.5V76h-5.3L87.8,86.2z"/>
	<path d="M87.8,95.7l-0.6,0.2c0.2-0.3,0.3-0.6,0.5-0.9H83c-2.9,3.5-7.2,5.7-12,5.7c-4.8,0-9.1-2.2-12-5.7h-5
		c0.2,0.3,0.3,0.6,0.5,0.9l-0.6-0.2L52.1,95h-9.6l20,7.4c0.1,0.1,0.3,0.1,0.5,0.2c2.4,1.1,5.2,1.8,8,1.8c3.1,0,6.1-0.8,8.7-2.1
		L99.2,95h-9.6L87.8,95.7z"/>
	<path d="M79.2,20.4c-0.1-0.1-0.3-0.1-0.5-0.2c-2.4-1.1-5.2-1.8-8-1.8c-3.1,0-6.1,0.8-8.7,2.1L19.8,36.1v1.3h5.3l28.8-10.2l0.6-0.2
		c-1.9,2.9-3,6.4-3,10.4h3.8c0.1-8.4,7-15.3,15.5-15.3c8.5,0,15.4,6.8,15.5,15.3h4c0-4-1.1-7.6-3-10.4l0.6,0.2l28.8,10.2h5.3v-1.3
		L79.2,20.4z"/>
	<path d="M53.9,17.7l0.6-0.2c-0.2,0.3-0.3,0.6-0.5,0.9h4.7c2.9-3.5,7.2-5.7,12-5.7c4.8,0,9.1,2.2,12,5.7h5c-0.2-0.3-0.3-0.6-0.5-0.9
		l0.6,0.2l1.8,0.7h9.6l-20-7.4c-0.1-0.1-0.3-0.1-0.5-0.2c-2.4-1.1-5.2-1.8-8-1.8c-3.1,0-6.1,0.8-8.7,2.1l-19.5,7.2h9.6L53.9,17.7z"
		/>
</g>
<g>
	<path d="M1190.7,36.8h-13.6v-5.3c1.9-0.5,3.3-2.2,3.3-4.2c0-2.4-2-4.4-4.4-4.4s-4.4,2-4.4,4.4c0,2,1.4,3.7,3.3,4.2v5.3h-11.2V14.3
		c1.9-0.5,3.3-2.2,3.3-4.2c0-2.4-2-4.4-4.4-4.4s-4.4,2-4.4,4.4c0,2,1.4,3.7,3.3,4.2v22.6h-12.8v-5.3c1.9-0.5,3.3-2.2,3.3-4.2
		c0-2.4-2-4.4-4.4-4.4c-2.4,0-4.4,2-4.4,4.4c0,2,1.4,3.7,3.3,4.2v5.3h-12c0,0-0.1,0-0.1,0c0,0-0.1,0-0.1,0c-0.2,0-0.4,0.1-0.5,0.3
		l-6.5,6.5c-0.2,0.2-0.3,0.5-0.3,0.8v62.1c0,0.1,0,0.1,0.1,0.2c0,0.1,0,0.1,0,0.2c0,0,0.1,0.1,0.1,0.1c0,0.1,0.1,0.2,0.2,0.2
		c0.1,0.1,0.1,0.1,0.2,0.2c0,0,0,0.1,0.1,0.1c0.1,0.1,0.3,0.1,0.4,0.1h56.2c0.3,0,0.6-0.1,0.8-0.3l6.5-6.5l0,0
		c0.1-0.1,0.2-0.3,0.3-0.5c0,0,0-0.1,0-0.1c0,0,0-0.1,0-0.1V37.9C1191.8,37.3,1191.3,36.8,1190.7,36.8z M1129.1,44.9l4.4-4.4v59.1
		l-4.4,4.4V44.9z M1183.7,105.5h-53.1l4.4-4.4h53.1L1183.7,105.5z M1189.6,99h-54V73.4h54V99z M1189.6,71.2h-54V39h54V71.2z"/>
	<circle cx="1161.9" cy="85.8" r="7.5"/>
	<path d="M1147.7,47.4h28.3c0.6,0,1.1-0.5,1.1-1.1s-0.5-1.1-1.1-1.1h-28.3c-0.6,0-1.1,0.5-1.1,1.1S1147.1,47.4,1147.7,47.4z"/>
	<path d="M1147.7,58.4h28.3c0.6,0,1.1-0.5,1.1-1.1c0-0.6-0.5-1.1-1.1-1.1h-28.3c-0.6,0-1.1,0.5-1.1,1.1
		C1146.6,57.9,1147.1,58.4,1147.7,58.4z"/>
	<path d="M1151.1,50.7c-0.6,0-1.1,0.5-1.1,1.1c0,0.6,0.5,1.1,1.1,1.1h21.5c0.6,0,1.1-0.5,1.1-1.1c0-0.6-0.5-1.1-1.1-1.1H1151.1z"/>
	<path d="M1172.7,61.7h-21.5c-0.6,0-1.1,0.5-1.1,1.1c0,0.6,0.5,1.1,1.1,1.1h21.5c0.6,0,1.1-0.5,1.1-1.1
		C1173.8,62.2,1173.3,61.7,1172.7,61.7z"/>
</g>
<g>
	<path d="M1050.2,35.5h-13.2v-5.4c1.8-0.4,3.1-2,3.1-3.9c0-2.2-1.8-4-4-4c-2.2,0-4,1.8-4,4c0,1.9,1.3,3.5,3.1,3.9v5.4h-11.1v-22
		c1.8-0.4,3.1-2,3.1-3.9c0-2.2-1.8-4-4-4c-2.2,0-4,1.8-4,4c0,1.9,1.3,3.5,3.1,3.9v22h-12.7v-5.4c1.8-0.4,3.1-2,3.1-3.9
		c0-2.2-1.8-4-4-4s-4,1.8-4,4c0,1.9,1.3,3.5,3.1,3.9v5.4h-11.7c-0.5,0-0.8,0.4-0.8,0.8v11v48.5v11c0,0.5,0.4,0.8,0.8,0.8h53.7
		c0.5,0,0.8-0.4,0.8-0.8v-11V47.3v-11C1051,35.9,1050.6,35.5,1050.2,35.5z M997.3,96.7h2.5l-2.5,2.5V96.7z M997.3,100.4l3.7-3.7h3.4
		l-7.1,7.1L997.3,100.4L997.3,100.4z M997.3,106v-1l8.3-8.3h3.4l-9.3,9.3H997.3z M1000.9,106l9.3-9.3h3.4l-9.3,9.3H1000.9z
		 M1005.5,106l9.3-9.3h3.4l-9.3,9.3H1005.5z M1010.1,106l9.3-9.3h3.4l-9.3,9.3H1010.1z M1014.7,106l9.3-9.3h3.4l-9.3,9.3H1014.7z
		 M1019.3,106l9.3-9.3h3.4l-9.3,9.3H1019.3z M1023.9,106l9.3-9.3h3.4l-9.3,9.3H1023.9z M1028.5,106l9.3-9.3h3.4l-9.3,9.3H1028.5z
		 M1033.1,106l9.3-9.3h3.4l-9.3,9.3H1033.1z M1049.3,106h-2.4l2.4-2.4V106z M1049.3,102.4l-3.6,3.6h-3.4l7-7V102.4z M1049.3,97.8
		l-8.2,8.2h-3.4l9.3-9.3h2.3V97.8z M1049.3,95h-52V70.1h52V95z M1049.3,48.2v20.2h-52V48.2v-11h52V48.2z"/>
	<circle cx="1022.6" cy="82.2" r="7.2"/>
	<path d="M1009,45.2h27.1c0.5,0,0.8-0.4,0.8-0.8c0-0.5-0.4-0.8-0.8-0.8H1009c-0.5,0-0.8,0.4-0.8,0.8
		C1008.2,44.8,1008.6,45.2,1009,45.2z"/>
	<path d="M1009,55.8h27.1c0.5,0,0.8-0.4,0.8-0.8c0-0.5-0.4-0.8-0.8-0.8H1009c-0.5,0-0.8,0.4-0.8,0.8
		C1008.2,55.4,1008.6,55.8,1009,55.8z"/>
	<path d="M1012.3,48.8c-0.5,0-0.8,0.4-0.8,0.8c0,0.5,0.4,0.8,0.8,0.8h20.6c0.5,0,0.8-0.4,0.8-0.8c0-0.5-0.4-0.8-0.8-0.8H1012.3z"/>
	<path d="M1032.9,59.4h-20.6c-0.5,0-0.8,0.4-0.8,0.8c0,0.5,0.4,0.8,0.8,0.8h20.6c0.5,0,0.8-0.4,0.8-0.8
		C1033.7,59.7,1033.4,59.4,1032.9,59.4z"/>
</g>
<polygon fill="none" points="-230.7,918.9 -230.8,919 -230.7,919 "/>
</svg>
